<?xml version='1.0' encoding='utf-8'?>
<svg xmlns="http://www.w3.org/2000/svg" data-name="Ebene 1" viewBox="0 0 800 800"> <defs> <linearGradient id="d" x1="451.24" x2="173.61" y1="364.09" y2="641.72" gradientUnits="userSpaceOnUse"> <stop offset="0"/> <stop stop-opacity="0" offset="1"/> </linearGradient> <mask id="c" maskUnits="userSpaceOnUse"> <circle cx="400" cy="400" r="400" fill="#fff"/> </mask> </defs> <circle cx="400" cy="400" r="400" fill="#1c8adb"/> <path d="M191.71 266c-2.94 0-5.6 1.19-7.54 3.1L1.6 451.68c7.25 186.27 47.67 346.98 382.05 348.16L627.6 555.88a74.32 74.32 0 0 0 21.9-52.7v-73.7h-7.49l7.5-7.49v-8.74c0-37.48-27.86-68.55-64.17-74.05l6.33-6.34v-56.15c0-5.91-4.8-10.71-10.71-10.71Z" fill="url(#d)" mask="url(#c)" opacity=".42"/> <path d="M191.71 266c-5.91 0-10.71 4.8-10.71 10.71V495c0 5.92 4.8 10.72 10.71 10.72h298.97c-.02-.81-.06-1.62-.06-2.44v-33.5H259.38V435.5h231.24v-22.14a81.22 81.22 0 0 1 6.31-31.42h-17.92v-34.29h34.28v9.27a83.33 83.33 0 0 1 78.38-24.05v-56.15c0-5.91-4.8-10.71-10.71-10.71Zm40.9 37.72h34.27V338H232.6zm43.92 0h34.28V338h-34.28zm43.92 0h34.28V338h-34.28zm43.93 0h34.28V338h-34.29Zm43.92 0h34.28V338H408.3zm43.92 0h34.29V338h-34.29zm43.93 0h34.28V338h-34.28zm-236.76 43.92h34.28v34.29h-34.28zm43.92 0h34.28v34.29h-34.28zm43.92 0h34.29v34.29h-34.29zm43.93 0h34.28v34.29h-34.28Zm43.92 0h34.29v34.29h-34.29zm-219.62 0h34.29v34.29h-34.29zm17.14 43.93h34.28v34.28H232.6zm43.93 0h34.28v34.28h-34.28zm43.92 0h34.28v34.28h-34.28zm43.93 0h34.28v34.28h-34.29Zm43.92 0h34.28v34.28H408.3zm43.92 0h34.29v34.28h-34.29zm-236.76 43.92h34.28v34.28h-34.28z" fill="#fff"/> <path d="M498.11 422v-8.75c0-40.1 31.9-72.9 71.92-74.85v21.66a13.78 13.78 0 0 0-10.1 13.22v15a13.78 13.78 0 0 0 10.1 13.21V422zm79.49-83.6c40.01 1.96 71.9 34.75 71.9 74.85V422h-71.9v-20.5a13.78 13.78 0 0 0 10.09-13.22v-15a13.78 13.78 0 0 0-10.1-13.21zm71.9 91.09v73.69c0 41.35-33.9 74.93-75.69 74.93-41.78 0-75.7-33.57-75.7-74.93v-73.69zm-75.69-62.45c3.48 0 6.3 2.8 6.3 6.24v15a6.28 6.28 0 0 1-6.3 6.24c-3.48 0-6.3-2.8-6.3-6.25v-14.99a6.28 6.28 0 0 1 6.3-6.24z" clip-rule="evenodd" fill="#fff" fill-rule="evenodd"/> </svg>